<?xml version="1.0" encoding="UTF-8" standalone="no"?>
<!-- Created with Inkscape (http://www.inkscape.org/) -->

<svg
   xmlns:dc="http://purl.org/dc/elements/1.1/"
   xmlns:cc="http://creativecommons.org/ns#"
   xmlns:rdf="http://www.w3.org/1999/02/22-rdf-syntax-ns#"
   xmlns:svg="http://www.w3.org/2000/svg"
   xmlns="http://www.w3.org/2000/svg"
   xmlns:xlink="http://www.w3.org/1999/xlink"
   xmlns:sodipodi="http://sodipodi.sourceforge.net/DTD/sodipodi-0.dtd"
   xmlns:inkscape="http://www.inkscape.org/namespaces/inkscape"
   width="210mm"
   height="297mm"
   viewBox="0 0 210 297"
   version="1.1"
   id="svg8"
   inkscape:version="0.92.2 2405546, 2018-03-11"
   sodipodi:docname="mirrormanager-logo.svg">
  <defs
     id="defs2">
    <linearGradient
       inkscape:collect="always"
       xlink:href="#linearGradient1434"
       id="linearGradient1436"
       x1="16.265625"
       y1="24.392502"
       x2="-0.89939392"
       y2="1.2290881"
       gradientUnits="userSpaceOnUse" />
    <linearGradient
       inkscape:collect="always"
       id="linearGradient1434">
      <stop
         style="stop-color:#0663a3;stop-opacity:1;"
         offset="0"
         id="stop1430" />
      <stop
         style="stop-color:#0663a3;stop-opacity:0;"
         offset="1"
         id="stop1432" />
    </linearGradient>
    <linearGradient
       inkscape:collect="always"
       xlink:href="#linearGradient1434"
       id="linearGradient1444"
       x1="36.212608"
       y1="27.777258"
       x2="-5.3916898"
       y2="-2.1800356"
       gradientUnits="userSpaceOnUse" />
  </defs>
  <sodipodi:namedview
     id="base"
     pagecolor="#ffffff"
     bordercolor="#666666"
     borderopacity="1.0"
     inkscape:pageopacity="0.0"
     inkscape:pageshadow="2"
     inkscape:zoom="5.6"
     inkscape:cx="223.18537"
     inkscape:cy="709.85643"
     inkscape:document-units="mm"
     inkscape:current-layer="layer1"
     showgrid="false"
     inkscape:window-width="2560"
     inkscape:window-height="1373"
     inkscape:window-x="1680"
     inkscape:window-y="0"
     inkscape:window-maximized="1" />
  <metadata
     id="metadata5">
    <rdf:RDF>
      <cc:Work
         rdf:about="">
        <dc:format>image/svg+xml</dc:format>
        <dc:type
           rdf:resource="http://purl.org/dc/dcmitype/StillImage" />
        <dc:title></dc:title>
      </cc:Work>
    </rdf:RDF>
  </metadata>
  <g
     inkscape:label="Layer 1"
     inkscape:groupmode="layer"
     id="layer1">
    <text
       xml:space="preserve"
       style="font-style:normal;font-variant:normal;font-weight:normal;font-stretch:normal;font-size:4.23333311px;line-height:125%;font-family:'AR PL UKai CN';-inkscape-font-specification:'AR PL UKai CN, Normal';font-variant-ligatures:normal;font-variant-caps:normal;font-variant-numeric:normal;font-feature-settings:normal;text-align:start;letter-spacing:0px;word-spacing:0px;writing-mode:lr-tb;text-anchor:start;fill:#000000;fill-opacity:1;stroke:none;stroke-width:0.26458332px;stroke-linecap:butt;stroke-linejoin:miter;stroke-opacity:1"
       x="36.615925"
       y="123.00753"
       id="text817"><tspan
         sodipodi:role="line"
         id="tspan815"
         x="36.615925"
         y="123.00753"
         style="stroke-width:0.26458332px;-inkscape-font-specification:'AR PL UKai CN, Normal';font-family:'AR PL UKai CN';font-weight:normal;font-style:normal;font-stretch:normal;font-variant:normal;font-size:11.28888889px;text-anchor:start;text-align:start;writing-mode:lr;font-variant-ligatures:normal;font-variant-caps:normal;font-variant-numeric:normal;font-feature-settings:normal">MirrorManager</tspan></text>
    <text
       xml:space="preserve"
       style="font-style:normal;font-variant:normal;font-weight:normal;font-stretch:normal;font-size:4.23333311px;line-height:125%;font-family:'AR PL UKai CN';-inkscape-font-specification:'AR PL UKai CN, Normal';font-variant-ligatures:normal;font-variant-caps:normal;font-variant-numeric:normal;font-feature-settings:normal;text-align:start;letter-spacing:0px;word-spacing:0px;writing-mode:lr-tb;text-anchor:start;fill:#0663a3;fill-opacity:1;stroke:none;stroke-width:0.26458332px;stroke-linecap:butt;stroke-linejoin:miter;stroke-opacity:1;"
       x="36.51865"
       y="114.48225"
       id="text821"><tspan
         sodipodi:role="line"
         id="tspan819"
         x="36.51865"
         y="114.48225"
         style="font-style:normal;font-variant:normal;font-weight:normal;font-stretch:normal;font-size:5.64444447px;font-family:'AR PL UKai CN';-inkscape-font-specification:'AR PL UKai CN, Normal';font-variant-ligatures:normal;font-variant-caps:normal;font-variant-numeric:normal;font-feature-settings:normal;text-align:start;writing-mode:lr-tb;text-anchor:start;stroke-width:0.26458332px;fill:#0663a3;fill-opacity:1;">penMandriva</tspan></text>
    <g
       style="display:inline"
       id="g1448"
       transform="matrix(0.2812065,0,0,0.2812065,25.101377,107.2439)"
       inkscape:export-xdpi="300"
       inkscape:export-ydpi="300">
      <path
         sodipodi:nodetypes="ssasszsassasssaazzaaaaaassscssscccsssczccccscsssssssscsssscssssscsssasssssscsssssaacs"
         inkscape:connector-curvature="0"
         id="path1374"
         d="M 29.33695,7.6149155 C 28.333144,7.0891607 27.281167,6.5846714 26.164069,6.3945765 24.029705,6.031375 22.075973,6.1766972 20.06249,6.4648307 18.893079,6.6321758 17.863707,6.9500122 16.649535,7.4195448 16.063612,7.6461271 14.8337,8.2673582 14.288232,8.5789833 13.763906,8.8785301 13.278033,9.217326 12.764746,9.6284749 c -0.513287,0.4111491 -1.074674,0.9335801 -1.58644,1.4277971 -0.467682,0.451644 -0.94583,0.897785 -1.3545768,1.403389 -0.705745,0.872979 -1.3591223,1.799811 -1.8793221,2.794577 -0.3945092,0.754411 -0.6743965,1.566806 -0.9274577,2.379661 -0.1217769,0.391158 -0.2599632,0.80252 -0.3606994,1.211728 -0.1230585,0.499885 -0.2177979,0.996109 -0.296875,1.515625 -0.1012979,0.6655 -0.1173461,1.342503 -0.125,2.015625 -0.01209,1.063248 0.028344,2.128585 0.125,3.1875 0.069833,0.765062 0.2839691,1.519829 0.5049017,2.259153 0.1692294,0.566306 0.3976307,1.113827 0.6261104,1.658931 0.2528501,0.603246 0.5311849,1.257421 0.8232233,1.78125 0.2920385,0.523829 0.5480244,0.874354 0.9024588,1.364736 0.3544343,0.490383 0.7883158,1.073428 1.2343748,1.566292 0.53883,0.595369 1.119265,1.155694 1.734375,1.671875 0.668271,0.560791 1.38558,1.063137 2.115847,1.540403 0.574298,0.375331 1.157716,0.743426 1.777459,1.037722 0.773656,0.367384 1.581566,0.669779 2.40625,0.900888 0.750478,0.210314 1.52318,0.34345 2.296875,0.4375 0.96306,0.11707 1.936295,0.175666 2.90625,0.15625 0.61194,-0.01225 1.222799,-0.08132 1.828125,-0.171875 0.688966,-0.103071 1.370715,-0.254231 2.046875,-0.421875 0.615935,-0.152712 1.828125,-0.53125 1.828125,-0.53125 0,0 1.389252,-0.598171 2.046875,-0.96875 0.337273,-0.190058 0.656293,-0.412052 0.96875,-0.640625 0.475308,-0.347704 0.932897,-0.720325 1.375,-1.109375 0.395449,-0.347994 1.140625,-1.09375 1.140625,-1.09375 l 1,-1 0.8125,-1.078125 c 0,0 0.396981,-0.534339 0.515625,-0.734375 0.185378,-0.312551 0.301759,-0.521022 0.453125,-0.78125 0.145522,-0.250181 0.02304,-0.02212 0.4375,-0.75 0.100244,-0.17605 0.275054,-0.545815 0.330806,-0.818972 0.05575,-0.273158 0.198935,-0.644825 0.159093,-0.833649 -0.03984,-0.188824 -0.591681,0.491896 -0.583649,0.465121 l -0.59375,0.53125 -0.734375,0.640625 -0.921875,0.6875 c 0,0 -0.820313,0.521124 -1.1875,0.71875 -0.424965,0.228724 -1.1875,0.5625 -1.1875,0.5625 0,0 -0.633265,0.27261 -0.953125,0.390625 -0.313877,0.115808 -0.226071,0.102469 -0.890625,0.3125 -0.573162,0.181146 -0.471688,0.107983 -1.0625,0.21875 -0.240981,0.04518 -0.818217,0.08843 -1.0625,0.109375 -0.48305,0.04142 -1.035003,0.07931 -1.515625,0.01563 -0.306896,-0.04067 -1.027779,-0.06559 -1.328125,-0.140625 C 26.305353,33.441547 26.020954,33.4129 25.71875,33.330007 25.375137,33.235757 25.041502,33.11348 24.703125,33.001882 24.41654,32.90736 23.875,32.658127 23.875,32.658127 c 0,0 -0.523183,-0.233052 -0.765625,-0.328125 -0.227689,-0.08929 -0.443017,-0.208349 -0.65625,-0.328125 -0.359082,-0.201702 -0.709713,-0.419723 -1.046875,-0.65625 -0.297672,-0.208824 -0.583353,-0.435174 -0.859375,-0.671875 -0.358021,-0.307018 -1.03125,-0.96875 -1.03125,-0.96875 v 0 c 0,0 -0.843268,-0.880444 -1.21875,-1.359375 -0.245111,-0.312641 -0.465018,-0.645209 -0.671875,-0.984375 -0.222067,-0.364103 -0.418355,-0.743692 -0.609375,-1.125 -0.133603,-0.266694 -0.261432,-0.536678 -0.375,-0.8125 -0.139262,-0.338224 -0.375,-1.03125 -0.375,-1.03125 0,0 -0.265603,-1.003514 -0.34375,-1.515625 -0.07882,-0.516518 -0.106761,-1.040321 -0.125,-1.5625 -0.01818,-0.520542 -0.02389,-1.043142 0.01563,-1.5625 0.04192,-0.550835 0.13334,-1.097516 0.234375,-1.640625 0.08503,-0.457102 0.175799,-0.914981 0.3125,-1.359375 0.147875,-0.480718 0.334359,-0.950406 0.546875,-1.40625 0.233423,-0.500689 0.51058,-0.980673 0.796875,-1.453125 0.184911,-0.305145 0.383386,-0.602436 0.59375,-0.890625 0.290621,-0.398137 0.583887,-0.797449 0.921875,-1.15625 0.336323,-0.357035 0.714076,-0.673835 1.09375,-0.984375 0.466861,-0.381851 1.453125,-1.0781251 1.453125,-1.0781251 0,0 0.867462,-0.4733393 1.3125,-0.6875 0.384556,-0.1850556 0.77019,-0.3714786 1.171875,-0.515625 0.361605,-0.1297635 0.734676,-0.2276647 1.109375,-0.3125 0.44846,-0.1015354 0.903571,-0.1738078 1.359375,-0.234375 0.331878,-0.0441 0.665701,-0.075536 1,-0.09375 0.33808,-0.01842 0.677067,-0.019656 1.015625,-0.015625 0.26581,0.00316 0.531296,0.019719 0.796875,0.03125 0.109396,0.00475 0.328125,0.015625 0.328125,0.015625 0,0 -0.335802,-0.2579628 -0.52243,-0.3557114 z"
         style="fill:url(#linearGradient1436);fill-opacity:1;fill-rule:evenodd;stroke:#000000;stroke-width:0;stroke-linecap:butt;stroke-linejoin:miter;stroke-miterlimit:4;stroke-dasharray:none;stroke-opacity:1" />
      <path
         inkscape:connector-curvature="0"
         d="M 39.659751,20.794579 A 10.884156,10.859751 0 0 1 28.775595,31.654329 10.884156,10.859751 0 0 1 17.891438,20.794579 10.884156,10.859751 0 0 1 28.775595,9.9348278 10.884156,10.859751 0 0 1 39.659751,20.794579 Z m -2.576702,-0.04881 a 8.2342329,8.2342329 0 0 1 -8.234233,8.234233 8.2342329,8.2342329 0 0 1 -8.234233,-8.234233 8.2342329,8.2342329 0 0 1 8.234233,-8.234233 8.2342329,8.2342329 0 0 1 8.234233,8.234233"
         style="fill:url(#linearGradient1444);fill-opacity:1;fill-rule:evenodd;stroke:#000000;stroke-width:0.10048278;stroke-linecap:butt;stroke-linejoin:miter;stroke-miterlimit:4;stroke-dasharray:none;stroke-opacity:1"
         id="path1372" />
    </g>
  </g>
</svg>
